<?xml version="1.0" standalone="no"?>
<!DOCTYPE svg PUBLIC "-//W3C//DTD SVG 20010904//EN"
 "http://www.w3.org/TR/2001/REC-SVG-20010904/DTD/svg10.dtd">
<svg version="1.0" xmlns="http://www.w3.org/2000/svg"
 width="800.000000pt" height="800.000000pt" viewBox="0 0 800.000000 800.000000"
 preserveAspectRatio="xMidYMid meet">
<metadata>
Created by potrace 1.16, written by Peter Selinger 2001-2019
</metadata>
<g transform="translate(0.000000,800.000000) scale(0.100000,-0.100000)"
fill="#000000" stroke="none">
<path d="M902 6538 c-16 -21 -19 -68 -4 -68 5 0 7 14 6 30 -1 17 1 30 5 30 14
0 47 -55 43 -72 -4 -19 -32 -25 -32 -7 0 6 -13 8 -30 5 -16 -2 -30 0 -30 5 0
5 5 9 11 9 5 0 7 5 3 11 -5 8 -10 6 -17 -6 -5 -9 -18 -26 -28 -36 -11 -11 -17
-24 -14 -29 4 -6 -1 -10 -9 -10 -9 0 -16 -4 -16 -9 0 -4 -13 -24 -30 -42 -16
-19 -30 -37 -30 -40 0 -3 -10 -18 -22 -32 -13 -15 -47 -66 -77 -114 -30 -48
-64 -104 -77 -123 -41 -64 -132 -237 -189 -361 -178 -384 -292 -790 -347
-1239 -21 -167 -17 -740 5 -915 41 -317 126 -660 233 -945 75 -197 254 -555
361 -723 398 -621 920 -1094 1573 -1426 466 -237 958 -377 1477 -421 205 -18
653 -8 849 19 1079 147 2025 696 2677 1553 113 150 266 387 334 522 72 141 91
182 86 189 -2 4 0 7 4 7 9 0 34 59 40 93 2 10 -6 30 -17 44 l-20 25 -9 -23
c-5 -13 -10 -18 -10 -11 -1 6 -6 12 -12 12 -6 0 -8 -7 -5 -16 6 -14 4 -15 -9
-4 -9 7 -12 16 -7 19 5 3 8 14 6 24 -1 9 2 17 8 17 6 0 8 -7 4 -15 -3 -8 -1
-15 5 -15 18 0 5 35 -15 38 -14 3 -17 0 -13 -12 3 -8 2 -18 -3 -21 -6 -4 -10
-1 -10 5 0 6 -4 9 -9 5 -5 -3 -12 -1 -16 5 -3 5 0 10 7 10 7 0 24 10 38 21 14
11 19 18 13 14 -7 -3 -13 -1 -13 5 0 21 25 4 28 -18 3 -18 7 -20 22 -12 13 7
21 5 31 -8 11 -14 11 -15 0 -5 -7 6 -20 9 -27 6 -25 -9 -15 -19 19 -17 54 3
58 4 52 14 -3 5 -12 7 -19 4 -7 -3 -16 2 -20 12 -5 12 -2 15 9 10 9 -3 13 -2
10 4 -3 5 1 22 9 37 8 16 15 22 16 16 0 -17 26 -17 33 0 6 17 -30 16 -61 -2
-13 -7 -48 -14 -79 -15 -49 -2 -54 -1 -50 16 3 10 1 18 -4 18 -4 0 -6 8 -2 18
3 9 3 14 -1 10 -4 -3 -9 -14 -11 -25 -1 -10 -8 -17 -14 -15 -14 3 -14 -4 0
-29 5 -11 15 -17 20 -13 7 4 9 -1 7 -12 -2 -11 -10 -18 -16 -16 -7 1 -12 -4
-12 -12 0 -8 -3 -22 -6 -31 -4 -9 -3 -15 2 -14 28 5 44 -3 44 -21 0 -11 -4
-20 -10 -20 -5 0 -7 6 -4 14 3 8 -1 14 -8 13 -42 -1 -48 2 -38 29 13 32 13 54
1 36 -4 -8 -12 -14 -17 -15 -5 -1 -8 -8 -6 -17 1 -8 -4 -4 -12 10 -14 24 -4
46 16 34 4 -3 8 -1 8 5 0 7 9 7 28 1 l27 -10 -24 20 c-13 11 -19 20 -15 20 5
0 1 7 -9 14 -16 12 -16 14 -2 20 18 6 11 26 -8 26 -7 0 -6 -4 3 -10 10 -7 11
-10 3 -11 -7 -1 -17 -2 -23 -3 -20 -2 -33 -27 -34 -65 -1 -21 2 -37 6 -35 4 2
9 0 12 -5 10 -16 -14 -24 -30 -11 -12 11 -14 9 -11 -6 1 -11 6 -25 10 -31 6
-9 -2 -12 -30 -10 -24 1 -38 -2 -38 -10 0 -20 -22 -37 -30 -24 -3 7 -1 10 6 9
7 -2 14 3 15 10 1 6 3 15 4 20 1 4 2 10 1 14 0 4 7 4 17 1 16 -7 16 -5 1 17
-8 13 -26 25 -39 27 -38 6 -38 14 0 10 21 -2 46 3 63 13 24 15 26 19 12 30 -8
7 -12 16 -10 21 3 4 -6 16 -20 25 -13 9 -22 21 -18 28 3 6 3 8 -2 4 -4 -4 -15
-2 -24 4 -10 8 -9 4 3 -10 11 -13 14 -22 7 -22 -9 0 -9 -5 -1 -20 6 -11 16
-20 22 -20 7 0 7 5 -1 14 -10 12 -8 13 9 9 16 -4 18 -8 9 -19 -9 -11 -8 -14 6
-14 14 0 15 -3 6 -14 -13 -16 -51 -18 -51 -3 0 5 7 7 15 3 8 -3 15 -1 15 3 0
10 -30 25 -43 22 -5 -1 -5 4 -1 11 5 10 4 10 -7 0 -9 -8 -10 -15 -4 -20 19
-13 14 -28 -11 -30 -13 -1 -24 3 -24 9 0 5 3 8 8 6 4 -3 8 6 8 19 1 13 -2 24
-7 24 -5 0 -8 -3 -8 -7 5 -30 -17 -36 -67 -19 -6 2 -17 0 -24 -4 -18 -11 -53
7 -43 23 4 7 0 7 -10 -2 -10 -8 -17 -9 -17 -3 0 6 8 16 18 21 9 6 12 11 7 11
-17 0 -55 -30 -55 -43 0 -21 -38 -17 -43 4 -5 20 -27 27 -27 8 0 -5 -5 -7 -10
-4 -6 4 -7 11 -4 17 4 6 2 8 -4 5 -5 -4 -8 -16 -5 -27 4 -17 8 -18 20 -8 11 9
16 9 24 -3 17 -27 10 -36 -28 -34 -21 1 -41 -3 -45 -9 -5 -7 -8 -5 -8 6 0 9 8
19 18 21 15 4 15 5 0 6 -22 1 -30 -12 -31 -54 0 -19 -4 -32 -8 -29 -4 2 -10 0
-13 -4 -8 -13 24 -53 36 -46 7 4 8 2 4 -5 -4 -6 -12 -9 -17 -6 -5 4 -9 0 -10
-7 -1 -14 -20 39 -21 60 -2 18 -18 15 -18 -4 0 -8 -4 -12 -10 -9 -13 8 -13 -8
0 -21 7 -7 6 -11 -4 -11 -8 0 -13 4 -11 8 3 4 -2 10 -11 13 -21 8 -9 24 32 41
23 9 33 19 28 26 -4 8 -3 9 4 5 7 -4 12 -1 12 8 0 21 -16 20 -30 -1 -10 -16
-11 -16 -4 2 16 46 16 75 0 81 -9 3 -13 11 -9 18 3 6 1 6 -8 -1 -18 -17 -29
-16 -29 2 0 20 -24 19 -41 -1 -10 -13 -10 -17 1 -24 8 -5 17 -7 19 -4 3 3 -1
9 -8 13 -9 6 -10 11 -2 15 6 4 14 0 17 -9 4 -9 14 -15 23 -14 37 3 44 -3 16
-16 -20 -9 -36 -10 -47 -4 -17 9 -22 5 -19 -15 1 -5 -5 -6 -14 -2 -9 3 -19 6
-21 6 -2 0 -4 8 -4 18 0 14 2 15 10 2 11 -18 23 -8 14 13 -5 13 -10 14 -25 6
-14 -7 -18 -16 -13 -35 4 -17 2 -29 -7 -35 -8 -5 -9 -9 -3 -9 6 0 17 7 24 15
7 8 16 12 21 10 4 -3 0 -14 -9 -23 -22 -22 -64 -27 -60 -7 2 8 -1 14 -7 14 -5
1 -10 -5 -10 -11 0 -22 -38 -38 -54 -25 -12 10 -14 9 -8 -5 3 -10 2 -18 -3
-18 -5 0 -11 8 -13 18 -4 16 -5 16 -6 0 -1 -20 -16 -24 -27 -6 -4 6 -3 8 2 5
6 -3 15 2 21 11 8 14 6 17 -13 18 -13 1 -22 -2 -19 -6 3 -4 -2 -10 -10 -13 -9
-4 -12 -1 -8 9 4 10 0 12 -13 8 -11 -4 -16 -4 -12 0 3 4 14 9 25 11 10 2 20 4
22 4 2 1 -1 7 -7 14 -8 9 -4 12 14 12 15 0 22 -5 19 -12 -7 -19 9 -16 38 7 30
24 47 26 47 5 0 -16 21 -16 32 0 12 16 -44 35 -62 20 -19 -15 -57 -13 -90 5
-14 7 -22 9 -18 5 4 -4 0 -14 -8 -22 -8 -8 -12 -18 -10 -22 3 -4 -4 -7 -14 -8
-11 -1 -22 2 -25 8 -4 5 2 6 12 2 14 -5 15 -3 7 7 -16 16 -54 4 -54 -18 0 -13
-2 -14 -12 -3 -11 10 -8 16 11 32 13 10 19 19 15 20 -5 0 -19 2 -31 5 -13 2
-23 -1 -23 -6 0 -6 8 -10 18 -11 14 0 14 -2 2 -7 -18 -8 -25 -32 -9 -32 5 0 7
-6 3 -13 -4 -6 -4 -9 1 -5 4 4 14 3 21 -3 7 -6 19 -7 26 -3 18 12 39 14 33 4
-3 -5 1 -11 7 -13 8 -3 6 -6 -4 -6 -10 -1 -18 5 -18 12 0 8 -3 8 -9 -2 -5 -8
-19 -12 -32 -9 -14 2 -31 -3 -41 -13 -22 -23 -10 -34 14 -12 10 9 18 12 18 7
0 -11 -20 -42 -20 -31 0 4 -9 3 -20 -3 -17 -9 -20 -8 -20 9 0 11 -5 23 -10 26
-6 4 -8 10 -5 15 3 5 1 11 -5 15 -5 3 -10 -1 -10 -9 0 -9 -5 -16 -10 -16 -7 0
-7 6 0 20 7 12 16 17 28 13 16 -5 16 -4 -1 13 -15 16 -19 17 -27 4 -8 -13 -10
-13 -10 2 0 9 6 19 13 22 6 3 3 4 -8 3 -11 -2 -19 -8 -18 -14 1 -6 -13 -11
-35 -11 -35 0 -36 1 -12 11 14 5 29 9 34 8 5 -1 6 4 3 12 -4 10 1 13 20 9 19
-4 24 -1 21 9 -3 8 -13 13 -23 11 -13 -3 -16 1 -11 13 3 9 6 19 6 21 0 2 9 4
21 4 13 0 18 -4 13 -12 -4 -7 -3 -8 5 -4 20 13 1 26 -33 23 -23 -1 -33 -7 -31
-17 1 -8 -3 -18 -9 -22 -6 -4 -12 -12 -12 -18 -1 -5 -2 -14 -3 -20 0 -5 -9
-10 -20 -10 -10 0 -25 -8 -32 -17 -8 -9 -9 -14 -3 -10 6 3 11 0 11 -8 0 -8 -4
-12 -9 -8 -5 3 -18 -4 -29 -16 -11 -12 -16 -21 -12 -21 4 0 3 -4 -4 -8 -6 -4
-31 -32 -55 -63 -122 -156 -295 -333 -441 -450 -580 -467 -1300 -674 -2031
-583 -405 50 -809 200 -1150 428 -157 105 -254 183 -390 315 -749 730 -1008
1840 -656 2821 23 63 42 122 44 132 1 9 7 22 13 30 17 22 22 45 11 56 -6 6 -6
12 3 17 8 5 10 4 5 -3 -4 -7 -3 -12 2 -12 5 0 12 9 15 21 4 15 -1 22 -19 29
-13 5 -24 12 -24 15 0 2 12 0 26 -5 32 -13 49 -4 33 16 -10 12 -10 15 2 12 10
-2 13 5 11 24 -2 14 2 29 8 33 9 5 10 0 6 -16 -6 -21 -5 -21 4 -6 6 9 13 27
15 38 4 17 2 19 -11 8 -12 -10 -13 -9 -8 5 5 12 14 16 28 12 19 -5 19 -4 -3
13 -31 23 -61 9 -61 -29 0 -20 2 -22 10 -10 5 8 10 11 10 5 0 -5 -5 -17 -10
-25 -6 -10 -10 -11 -10 -3 0 7 -3 12 -7 11 -5 -2 -20 10 -35 25 -15 15 -22 28
-15 29 19 2 51 5 66 7 8 0 11 4 7 8 -4 4 -23 6 -42 4 -19 -1 -34 1 -33 6 1 4
-2 18 -6 31 -6 18 -10 20 -21 11 -12 -10 -13 -9 -8 5 4 10 13 15 20 12 18 -7
28 10 12 21 -24 15 -38 11 -39 -10 -1 -17 -2 -18 -6 -4 -2 9 -9 14 -15 11 -7
-4 -7 0 0 12 5 11 8 36 7 56 -2 25 2 39 13 43 12 4 13 3 2 -10 -12 -15 0 -22
14 -8 10 11 37 12 30 2 -3 -5 -10 -7 -15 -4 -5 4 -9 -1 -9 -9 0 -9 -8 -16 -17
-17 -11 0 -13 -3 -6 -6 10 -3 10 -10 2 -26 -11 -20 -10 -20 17 3 16 14 23 18
17 10 -8 -11 -8 -18 3 -28 12 -11 14 -10 14 5 0 15 2 16 10 3 6 -9 5 -17 -3
-22 -8 -5 -6 -8 6 -8 9 0 17 -5 17 -11 0 -6 -7 -8 -15 -5 -22 8 -31 -22 -12
-42 15 -14 17 -14 23 1 3 9 10 14 15 11 5 -3 7 -10 4 -15 -3 -5 1 -6 9 -3 10
4 16 1 16 -7 0 -11 3 -11 10 1 5 8 10 10 10 5 0 -12 40 -13 58 -2 6 4 8 15 5
23 -4 12 -8 13 -14 3 -4 -7 -5 -17 -2 -23 3 -5 1 -6 -5 -3 -5 4 -8 16 -5 26 6
25 -23 32 -59 14 -17 -8 -29 -9 -33 -3 -3 6 2 10 11 10 10 0 26 7 36 17 11 9
18 11 18 5 0 -7 7 -12 15 -12 8 0 15 5 15 11 0 5 4 7 10 4 6 -4 7 1 3 11 -4
10 -8 13 -10 7 -2 -6 -15 -10 -28 -7 -13 2 -27 0 -30 -6 -4 -6 -11 -8 -16 -4
-6 4 -6 10 1 19 7 9 6 16 -5 25 -9 7 -15 8 -15 2 0 -6 5 -12 12 -14 7 -3 5 -7
-6 -11 -10 -4 -15 -3 -11 3 3 6 2 10 -3 10 -5 0 -8 17 -8 38 1 33 -2 37 -26
40 -18 2 -34 14 -45 33 -10 16 -21 29 -26 29 -4 0 -5 -4 -2 -10 3 -5 1 -10 -4
-10 -15 0 -14 17 1 26 6 4 17 -1 24 -10 7 -10 17 -15 22 -12 6 3 13 1 15 -4 3
-6 4 -5 3 2 -2 7 -9 12 -15 10 -7 -1 -9 9 -6 30 l6 32 -21 -19 c-12 -11 -24
-15 -28 -10 -8 11 -23 16 -67 22 -30 5 -31 4 -31 -36 -1 -46 2 -48 28 -25 16
16 18 15 24 -2 16 -50 16 -50 23 -30 6 15 10 16 16 7 8 -14 -10 -31 -32 -31
-7 0 -13 -8 -13 -17 0 -14 -3 -13 -16 5 -8 12 -12 27 -9 32 5 9 -15 15 -37 11
-4 0 -3 11 3 25 8 24 7 26 -11 21 -11 -3 -18 -2 -15 3 3 4 -2 11 -11 14 -17 6
-10 26 9 26 8 0 8 -3 -1 -9 -11 -6 -10 -10 4 -15 9 -3 19 -4 22 -1 3 3 2 5 -2
5 -4 0 -3 8 2 18 6 12 2 23 -15 39 -13 12 -23 18 -23 13 0 -14 -27 -12 -36 2
-5 7 -2 9 8 6 11 -5 14 0 12 18 -1 13 3 27 8 31 7 4 8 1 3 -7 -5 -9 -2 -10 14
-5 15 5 21 2 21 -9 0 -9 4 -16 10 -16 12 0 9 -22 -5 -32 -5 -4 0 -8 13 -8 13
0 20 4 17 10 -4 7 3 7 20 0 23 -9 25 -8 15 9 -14 27 -13 41 4 41 7 0 19 7 26
15 11 13 15 13 21 3 6 -8 9 -9 9 -2 0 6 -7 17 -15 24 -8 7 -15 9 -15 4 0 -5
-7 4 -15 20 -8 15 -12 38 -9 51 7 27 -15 39 -35 18 -12 -13 -11 -14 8 -8 11 3
21 5 21 3 0 -2 -4 -18 -9 -36 -6 -18 -6 -30 -1 -27 4 3 15 -6 24 -20 9 -14 12
-25 7 -25 -5 0 -13 5 -17 11 -5 8 -10 7 -16 -4 -6 -12 -15 -14 -31 -8 -12 4
-28 6 -35 4 -7 -3 -10 1 -6 11 7 19 16 20 31 5 14 -14 47 -3 37 12 -4 8 -9 7
-15 -2 -4 -7 -11 -10 -15 -6 -4 4 1 14 12 22 15 11 16 14 4 15 -13 0 -13 1 0
10 8 5 12 12 8 15 -3 3 -12 0 -19 -7 -8 -7 -23 -14 -34 -15 -18 -2 -18 -1 3 9
12 6 22 19 22 30 0 10 5 18 10 18 6 0 10 4 10 10 0 5 -7 6 -17 3 -12 -5 -14
-3 -8 7 5 8 4 11 -3 6 -16 -10 -25 13 -12 29 9 11 9 15 1 15 -6 0 -11 -5 -11
-11 0 -5 -5 -7 -10 -4 -13 8 -8 -18 5 -27 6 -5 5 -8 -2 -8 -7 0 -13 -5 -13
-11 0 -5 4 -7 10 -4 6 4 7 -1 3 -11 -6 -15 -7 -15 -15 1 -6 9 -7 19 -4 22 3 4
1 12 -5 19 -8 10 -4 20 15 39 14 14 26 29 26 32 0 4 -5 2 -12 -5 -20 -20 -38
-14 -38 12 0 13 -7 26 -15 30 -8 3 -15 10 -15 16 0 6 4 9 8 6 5 -3 9 1 9 9 0
8 -4 12 -8 10 -4 -3 -10 2 -13 11 -5 13 -15 15 -40 11 -23 -4 -36 -1 -39 7 -4
9 3 12 19 10 13 -1 22 2 19 6 -3 5 -13 6 -22 3 -10 -4 -14 -2 -10 4 4 6 -6 9
-23 8 -16 -1 -27 2 -24 7 3 4 14 8 25 8 21 0 25 10 8 27 -16 16 -3 47 17 39 8
-3 12 -2 9 4 -3 6 -1 10 4 10 17 0 13 17 -5 24 -11 4 -15 2 -11 -8 4 -10 0
-14 -14 -13 -21 1 -24 8 -9 23 12 12 2 47 -11 38 -5 -3 -9 2 -9 10 0 17 -12
21 -24 9 -12 -12 -46 -13 -46 -2 0 6 -7 9 -15 6 -8 -4 -17 -2 -20 4 -4 5 -3 9
2 8 19 -3 33 2 33 12 0 5 -5 7 -12 3 -7 -4 -8 -3 -4 5 6 9 11 9 21 1 9 -7 16
-6 25 5 11 13 8 14 -21 11 -19 -2 -40 -4 -47 -5 -7 0 -11 -4 -9 -8 3 -5 -2
-15 -11 -23 -14 -13 -15 -12 -8 5 4 11 9 26 10 33 1 8 9 18 17 22 11 7 11 12
2 21 -10 10 -9 15 5 25 9 7 17 17 17 23 0 5 8 16 19 24 16 12 16 14 2 14 -9 0
-16 -4 -16 -9 0 -4 -7 -8 -16 -8 -14 0 -15 2 -3 18 10 12 8 12 -10 -3 -26 -22
-30 -23 -42 -4 -8 14 25 44 39 35 5 -3 9 1 9 9 0 8 -3 12 -7 10 -3 -2 -12 0
-20 5 -8 5 -21 5 -31 -1 -11 -6 -20 -5 -24 1 -8 14 -20 13 -33 -2z m-184
-2795 c3 -31 6 -33 43 -33 38 0 39 1 39 35 0 38 3 40 47 24 22 -7 32 -18 37
-39 5 -27 9 -29 66 -36 68 -7 90 -27 90 -78 l0 -29 -70 7 c-69 6 -70 6 -70
-18 0 -27 16 -36 68 -36 66 0 82 -9 82 -44 0 -51 -10 -58 -79 -54 l-61 3 0
-32 c0 -29 -3 -33 -27 -33 -31 0 -63 26 -63 50 0 17 -26 30 -62 30 -12 0 -18
-10 -20 -32 -3 -30 -6 -33 -39 -36 -35 -3 -36 -2 -43 36 l-6 40 -66 4 c-68 4
-84 14 -84 53 0 34 20 45 82 45 55 0 58 1 58 25 0 22 -4 25 -33 25 -43 0 -99
17 -109 32 -4 7 -8 28 -8 47 l0 33 70 -7 c69 -7 70 -7 70 17 0 33 8 39 50 36
31 -3 35 -6 38 -35z m246 -464 c67 -25 137 -97 160 -166 20 -59 21 -160 1
-207 -24 -56 -89 -121 -148 -146 -180 -78 -369 38 -385 237 -7 86 12 144 64
202 84 93 196 122 308 80z m318 -636 c77 -162 78 -246 2 -313 -41 -35 -101
-53 -151 -44 -49 9 -116 72 -149 140 l-26 53 -79 -40 -79 -39 -27 55 c-17 35
-24 58 -17 65 7 7 461 228 472 230 2 0 26 -48 54 -107z m258 -458 c47 -69 91
-134 98 -144 11 -16 8 -21 -28 -45 -22 -14 -41 -26 -43 -26 -2 0 -30 38 -62
85 -32 47 -62 85 -67 85 -14 0 -88 -53 -88 -63 0 -5 20 -37 45 -71 l45 -63
-41 -29 c-25 -17 -43 -24 -47 -17 -35 54 -87 123 -92 123 -9 0 -90 -61 -90
-67 0 -4 27 -45 59 -92 l59 -86 -40 -29 c-22 -16 -43 -25 -47 -20 -39 43 -191
278 -185 284 14 14 428 300 434 299 3 0 43 -56 90 -124z m192 -262 c34 -33 35
-44 8 -257 -11 -88 -20 -167 -20 -175 0 -9 52 36 115 99 l115 115 40 -40 40
-40 -189 -189 c-204 -204 -204 -204 -245 -142 -15 24 -15 38 9 223 14 109 25
200 25 203 0 2 -52 -47 -115 -110 l-115 -115 -43 43 -42 43 190 184 c105 101
192 184 194 185 3 0 18 -12 33 -27z m563 -491 c66 -46 124 -88 128 -92 12 -11
-43 -91 -57 -83 -6 3 -32 21 -57 40 -26 18 -51 33 -55 33 -7 -1 -205 -277
-245 -342 -5 -7 -25 2 -58 26 -28 21 -51 39 -51 41 0 2 54 81 120 175 66 94
120 175 120 179 0 5 -25 25 -55 45 -30 20 -55 40 -55 44 0 4 11 24 25 45 l26
37 47 -32 c26 -18 101 -70 167 -116z m3015 -175 c0 -20 -57 -264 -65 -276 -3
-6 -2 -11 4 -11 5 0 73 -42 151 -93 l141 -94 -61 -26 c-34 -15 -67 -27 -73
-27 -7 0 -59 32 -117 70 -58 38 -110 70 -116 70 -5 0 -18 -6 -28 -13 -18 -13
-16 -18 23 -107 22 -51 41 -97 41 -102 0 -9 -110 -62 -115 -56 -1 2 -195 445
-211 484 -4 9 88 54 111 54 6 0 28 -43 50 -95 22 -52 43 -95 46 -95 24 0 40
36 59 140 12 63 27 121 33 129 10 12 101 58 120 60 4 1 7 -5 7 -12z m-2607
-52 c176 -83 217 -291 86 -440 -120 -137 -361 -101 -455 67 -71 129 -13 304
126 378 69 37 160 35 243 -5z m377 -168 c27 -13 30 -28 47 -255 l8 -103 78
145 c43 79 85 150 93 157 22 18 86 0 100 -29 6 -12 17 -90 24 -172 7 -83 15
-150 19 -150 3 0 40 66 81 148 l75 147 46 -2 c99 -5 102 10 -46 -261 -73 -134
-134 -245 -137 -247 -2 -2 -28 2 -58 8 l-55 12 -17 173 c-9 96 -18 178 -20
183 -2 5 -42 -61 -89 -148 l-86 -158 -44 3 c-76 6 -72 -4 -98 254 -12 128 -25
253 -28 277 l-6 44 44 -7 c24 -4 55 -12 69 -19z m1657 -44 c69 -32 98 -121 65
-195 -10 -24 -26 -49 -34 -56 -14 -11 -4 -24 78 -104 52 -50 94 -94 94 -97 0
-7 -103 -31 -129 -31 -7 0 -47 36 -90 80 -62 65 -80 78 -99 74 -27 -8 -27 -3
-2 -109 11 -47 20 -87 20 -89 0 -5 -120 -29 -124 -25 -6 6 -125 514 -121 517
2 2 43 14 92 27 107 28 202 31 250 8z m-545 -90 c59 -31 112 -95 128 -151 39
-141 -21 -279 -145 -338 -64 -31 -179 -33 -240 -5 -128 58 -191 198 -151 336
22 75 100 156 172 179 72 23 170 15 236 -21z"/>
<path d="M835 3161 c-87 -22 -127 -62 -132 -134 -5 -60 16 -109 59 -140 60
-44 207 -11 248 55 39 64 18 162 -42 202 -29 19 -94 27 -133 17z"/>
<path d="M1122 2556 l-73 -36 25 -49 c28 -53 50 -66 96 -56 29 6 70 47 70 69
0 6 -10 32 -23 59 l-22 48 -73 -35z"/>
<path d="M2554 1118 c-64 -16 -124 -111 -124 -194 0 -66 77 -134 151 -134 52
0 99 36 132 99 56 111 19 205 -90 229 -21 5 -52 5 -69 0z"/>
<path d="M4562 903 c-19 -4 -23 -9 -18 -26 3 -12 11 -46 17 -74 13 -58 20 -61
76 -38 45 19 53 30 53 73 0 59 -43 81 -128 65z"/>
<path d="M3980 813 c-50 -26 -72 -71 -72 -148 0 -71 18 -114 63 -148 34 -24
113 -26 157 -3 45 23 63 56 69 124 6 70 -19 140 -62 168 -39 25 -113 29 -155
7z"/>
</g>
</svg>
